<?xml version="1.0" encoding="utf-8"?>
<!-- Generator: Adobe Illustrator 27.2.0, SVG Export Plug-In . SVG Version: 6.00 Build 0)  -->
<svg version="1.1" id="Outline" xmlns="http://www.w3.org/2000/svg" xmlns:xlink="http://www.w3.org/1999/xlink" x="0px" y="0px"
	 viewBox="0 0 48 48" enable-background="new 0 0 48 48" xml:space="preserve">
<g>
	<path d="M38.75,15c0,0.40997-0.33997,0.75-0.75,0.75h-1.77997l-1.57001,7.40997C34.01001,25.82996,31.29999,27.75,28.20001,27.75
		H15c-0.69,0-1.25,0.56-1.25,1.25s0.56,1.25,1.25,1.25h19c0.41003,0,0.75,0.33997,0.75,0.75c0,0.40997-0.33997,0.75-0.75,0.75H15
		c-1.51996,0-2.75-1.23004-2.75-2.75c0-1.52002,1.23004-2.75,2.75-2.75h0.27002l-2.5-14.27002
		C12.75,11.87,12.58002,11.75,12.35999,11.75H10c-0.40997,0-0.75-0.34003-0.75-0.75c0-0.41003,0.34003-0.75,0.75-0.75h2.35999
		c0.94,0,1.74005,0.62,1.89001,1.46997L14.69,14.25H16c0.41003,0,0.75,0.33997,0.75,0.75c0,0.40997-0.33997,0.75-0.75,0.75h-1.04999
		l1.84003,10.5h11.40997c2.40997,0,4.51001-1.44,4.98999-3.42999L34.67999,15.75H19c-0.40997,0-0.75-0.34003-0.75-0.75
		c0-0.41003,0.34003-0.75,0.75-0.75h19C38.41003,14.25,38.75,14.58997,38.75,15z"/>
	<path d="M19,33.25c-1.5166,0-2.75,1.2334-2.75,2.75s1.2334,2.75,2.75,2.75s2.75-1.2334,2.75-2.75S20.5166,33.25,19,33.25z
		 M19,37.25c-0.68945,0-1.25-0.56055-1.25-1.25s0.56055-1.25,1.25-1.25s1.25,0.56055,1.25,1.25S19.68945,37.25,19,37.25z"/>
	<path d="M29,33.25c-1.5166,0-2.75,1.2334-2.75,2.75s1.2334,2.75,2.75,2.75s2.75-1.2334,2.75-2.75S30.5166,33.25,29,33.25z
		 M29,37.25c-0.68945,0-1.25-0.56055-1.25-1.25s0.56055-1.25,1.25-1.25s1.25,0.56055,1.25,1.25S29.68945,37.25,29,37.25z"/>
	<path d="M25.75,23v-4c0-0.41406-0.33594-0.75-0.75-0.75s-0.75,0.33594-0.75,0.75v4c0,0.41406,0.33594,0.75,0.75,0.75
		S25.75,23.41406,25.75,23z"/>
	<path d="M29.75,23v-4c0-0.41406-0.33594-0.75-0.75-0.75s-0.75,0.33594-0.75,0.75v4c0,0.41406,0.33594,0.75,0.75,0.75
		S29.75,23.41406,29.75,23z"/>
	<path d="M21.75,23v-4c0-0.41406-0.33594-0.75-0.75-0.75s-0.75,0.33594-0.75,0.75v4c0,0.41406,0.33594,0.75,0.75,0.75
		S21.75,23.41406,21.75,23z"/>
</g>
</svg>
