<?xml version="1.0" encoding="utf-8"?>
<!-- Generator: Adobe Illustrator 27.8.1, SVG Export Plug-In . SVG Version: 6.00 Build 0)  -->
<svg version="1.1" id="Outline" xmlns="http://www.w3.org/2000/svg" xmlns:xlink="http://www.w3.org/1999/xlink" x="0px" y="0px"
	 viewBox="0 0 48 48" enable-background="new 0 0 48 48" xml:space="preserve">
<path d="M38.24115,21.61761C38.41266,20.7489,38.5,19.87836,38.5,19.01953c0-5.37598-4.3916-9.75-9.79004-9.75
	c-2.29004,0-4.46191,0.78027-6.20996,2.21387c-1.74805-1.43359-3.91992-2.21387-6.20996-2.21387
	c-5.39844,0-9.79004,4.37402-9.79004,9.75c0,11.52514,14.91731,19.11685,15.55269,19.43455
	c0.26429,0.13214,0.61689,0.13838,0.89457,0.00002c0.08203-0.04126,1.89362-0.95831,4.26587-2.60364
	c2.05039,1.69567,3.97853,2.68388,4.15012,2.76964c0.26681,0.13336,0.61372,0.14043,0.89455,0.00001
	C32.63477,38.43164,41.5,33.91895,41.5,26.98242C41.5,24.65625,40.17645,22.63446,38.24115,21.61761z M22.50098,36.42773
	C20.06396,35.09277,8.5,28.26953,8.5,19.01953c0-4.27344,3.49463-7.75,7.79004-7.75c2.07715,0,4.03223,0.80566,5.50488,2.26953
	c0.39062,0.38867,1.01953,0.38867,1.41016,0c1.47266-1.46387,3.42773-2.26953,5.50488-2.26953
	c4.2959,0,7.79004,3.47656,7.79004,7.75c0,0.65924-0.07971,1.31299-0.19659,1.97119
	c-0.29236-0.04309-0.58905-0.07275-0.89325-0.07275c-1.31348,0-2.5625,0.41016-3.59961,1.1709
	c-1.03809-0.75977-2.28711-1.1709-3.59961-1.1709c-3.3584,0-6.09033,2.7207-6.09033,6.06445
	c0,3.00104,1.66083,5.54565,3.5744,7.48541C24.28369,35.42395,23.10834,36.09741,22.50098,36.42773z M31.80957,36.58887
	c-1.70508-0.95996-7.68896-4.68164-7.68896-9.60645c0-2.24121,1.83447-4.06445,4.09033-4.06445
	c1.09375,0,2.12109,0.42383,2.89453,1.19238c0.39062,0.38867,1.02051,0.38867,1.41113,0
	c0.77148-0.76953,1.79883-1.19238,2.89355-1.19238c2.25488,0,4.08984,1.82324,4.08984,4.06445
	C39.5,31.89453,33.51367,35.62598,31.80957,36.58887z"/>
</svg>
