<svg xmlns="http://www.w3.org/2000/svg" viewBox="0 0 100 100"><path d="M58.014,97.5H41.986a3.852,3.852,0,0,1-3.851-3.852V82.055c-.818-.3-1.622-.637-2.412-1l-8.2,8.194a3.849,3.849,0,0,1-5.445,0L10.744,77.922a3.849,3.849,0,0,1,0-5.445l8.2-8.2c-.363-.787-.694-1.594-1-2.412H6.352A3.852,3.852,0,0,1,2.5,58.014V41.986a3.852,3.852,0,0,1,3.852-3.851h11.6c.3-.818.632-1.624,1-2.412l-8.2-8.2a3.851,3.851,0,0,1,0-5.446L22.078,10.744a3.849,3.849,0,0,1,5.445,0l8.2,8.2q1.185-.54,2.412-1V6.352A3.852,3.852,0,0,1,41.986,2.5H58.014a3.852,3.852,0,0,1,3.851,3.852v11.6q1.227.451,2.407.992l8.2-8.2a3.849,3.849,0,0,1,5.445,0L89.256,22.078a3.851,3.851,0,0,1,0,5.446l-8.2,8.2c.361.793.692,1.594.993,2.412h11.6A3.852,3.852,0,0,1,97.5,41.986V58.014a3.852,3.852,0,0,1-3.852,3.851H82.05c-.3.818-.632,1.619-.993,2.412l8.2,8.2a3.849,3.849,0,0,1,0,5.445L77.922,89.251a3.849,3.849,0,0,1-5.445,0l-8.2-8.194q-1.185.541-2.412,1V93.648A3.852,3.852,0,0,1,58.014,97.5ZM45.838,89.8h8.324V79.246A3.856,3.856,0,0,1,57,75.53a26.436,26.436,0,0,0,6.115-2.522,3.845,3.845,0,0,1,4.631.622L75.2,81.082,81.087,75.2,73.63,67.742a3.843,3.843,0,0,1-.622-4.629,26.358,26.358,0,0,0,2.517-6.107,3.848,3.848,0,0,1,3.716-2.844H89.8V45.838H79.241a3.847,3.847,0,0,1-3.716-2.844,26.376,26.376,0,0,0-2.517-6.107,3.843,3.843,0,0,1,.622-4.629L81.087,24.8,75.2,18.914,67.737,26.37a3.86,3.86,0,0,1-4.631.622A26.307,26.307,0,0,0,57,24.47a3.857,3.857,0,0,1-2.834-3.716V10.2H45.838V20.754A3.857,3.857,0,0,1,43,24.47a26.436,26.436,0,0,0-6.115,2.522,3.846,3.846,0,0,1-4.631-.622L24.8,18.914,18.913,24.8l7.457,7.457a3.847,3.847,0,0,1,.622,4.629A26.554,26.554,0,0,0,24.47,43a3.856,3.856,0,0,1-3.716,2.839H10.2v8.324H20.754A3.857,3.857,0,0,1,24.47,57a26.536,26.536,0,0,0,2.522,6.112,3.847,3.847,0,0,1-.622,4.629L18.913,75.2,24.8,81.082l7.457-7.452a3.845,3.845,0,0,1,4.631-.622A26.383,26.383,0,0,0,43,75.53a3.851,3.851,0,0,1,2.836,3.716ZM50,69.7A19.7,19.7,0,1,1,69.7,50,19.727,19.727,0,0,1,50,69.7ZM50,38A12,12,0,1,0,62,50,12.012,12.012,0,0,0,50,38Z"/></svg>